# xmcd
#
# Track frame offsets:
#	150
#	20311
#	35465
#	52629
#	70476
#	89419
#	106917
#	121907
#	144072
#	156539
#	174496
#	192250
#	209436
#	224928
#	245401
#	261905
#	285455
#	306523
#	326729
#
# Disc length: 4630 seconds
#
# Revision: 2
# Processed by: cddbd v1.4PL0 Copyright (c) Steve Scherf et al.
# Submitted via: audiograbber 1.80
#
DISCID=1d121413
DTITLE=Herbert Grönemeyer - Bochum+Ö
DYEAR=1900
DGENRE=
TTITLE0=Alkohol
TTITLE1=Amerika
TTITLE2=Bochum
TTITLE3=Erwischt
TTITLE4=Fangfragen
TTITLE5=Flugzeuge im Bauch
TTITLE6=Für Dich da
TTITLE7=Jetzt oder nie
TTITLE8=Mambo
TTITLE9=Männer
TTITLE10=Bist Du taub
TTITLE11=Fragwürdig
TTITLE12=Halt mich
TTITLE13=Herbsterwachen
TTITLE14=Keine Heimat
TTITLE15=Komet
TTITLE16=Mit Gott
TTITLE17=Vollmond
TTITLE18=Was soll das
EXTD=
EXTT0=
EXTT1=
EXTT2=
EXTT3=
EXTT4=
EXTT5=
EXTT6=
EXTT7=
EXTT8=
EXTT9=
EXTT10=
EXTT11=
EXTT12=
EXTT13=
EXTT14=
EXTT15=
EXTT16=
EXTT17=
EXTT18=
PLAYORDER=
